<?xml version="1.0" encoding="UTF-8" standalone="no" ?>
<!DOCTYPE svg PUBLIC "-//W3C//DTD SVG 1.1//EN" "http://www.w3.org/Graphics/SVG/1.1/DTD/svg11.dtd">
<svg xmlns="http://www.w3.org/2000/svg" xmlns:xlink="http://www.w3.org/1999/xlink" version="1.1" width="1080" height="1080" viewBox="0 0 1080 1080" xml:space="preserve">
<desc>Created with Fabric.js 5.2.4</desc>
<defs>
</defs>
<rect x="0" y="0" width="100%" height="100%" fill="transparent"></rect>
<g transform="matrix(1 0 0 1 540 540)" id="87aeab78-a9c8-4d7a-877d-14545ca81d0f"  >
<rect style="stroke: none; stroke-width: 1; stroke-dasharray: none; stroke-linecap: butt; stroke-dashoffset: 0; stroke-linejoin: miter; stroke-miterlimit: 4; fill: rgb(255,255,255); fill-rule: nonzero; opacity: 1; visibility: hidden;" vector-effect="non-scaling-stroke"  x="-540" y="-540" rx="0" ry="0" width="1080" height="1080" />
</g>
<g transform="matrix(1 0 0 1 540 540)" id="4e171a44-a5bf-4a29-a7f1-515663917454"  >
</g>
<g transform="matrix(1.33 0 0 1.33 541.28 543.46)"  >
<g style="opacity: 0.11;" vector-effect="non-scaling-stroke"   >
		<g transform="matrix(1.95 0 0 1.95 -279.55 -279.71)"  >
<path style="stroke: none; stroke-width: 1; stroke-dasharray: none; stroke-linecap: butt; stroke-dashoffset: 0; stroke-linejoin: miter; stroke-miterlimit: 4; fill: rgb(0,0,0); fill-rule: nonzero; opacity: 1;" vector-effect="non-scaling-stroke"  transform=" translate(-61.83, -61.75)" d="M 113.574 123.494 C 119.096 123.494 123.574 119.017 123.574 113.494 L 123.574 10 C 123.574 4.477 119.096 0 113.574 0 L 10.078 0 C 4.555999999999999 0 0.0779999999999994 4.477 0.0779999999999994 10 L 0.0779999999999994 113.494 C 0.0779999999999994 119.017 4.555999999999999 123.494 10.078 123.494 L 113.574 123.494 z M 20.078 20 L 103.574 20 L 103.574 103.494 L 20.078 103.494 L 20.078 20 z" stroke-linecap="round" />
</g>
		<g transform="matrix(1.95 0 0 1.95 -279.55 -279.71)"  >
<rect style="stroke: none; stroke-width: 1; stroke-dasharray: none; stroke-linecap: butt; stroke-dashoffset: 0; stroke-linejoin: miter; stroke-miterlimit: 4; fill: rgb(0,0,0); fill-rule: nonzero; opacity: 1;" vector-effect="non-scaling-stroke"  x="-21" y="-21" rx="0" ry="0" width="42" height="42" />
</g>
		<g transform="matrix(1.95 0 0 1.95 279.55 -279.71)"  >
<path style="stroke: none; stroke-width: 1; stroke-dasharray: none; stroke-linecap: butt; stroke-dashoffset: 0; stroke-linejoin: miter; stroke-miterlimit: 4; fill: rgb(0,0,0); fill-rule: nonzero; opacity: 1;" vector-effect="non-scaling-stroke"  transform=" translate(-348.81, -61.75)" d="M 400.562 0 L 297.066 0 C 291.544 0 287.066 4.477 287.066 10 L 287.066 113.494 C 287.066 119.017 291.544 123.494 297.066 123.494 L 400.56199999999995 123.494 C 406.08299999999997 123.494 410.56199999999995 119.017 410.56199999999995 113.494 L 410.56199999999995 10 C 410.562 4.477 406.085 0 400.562 0 z M 390.562 103.494 L 307.06600000000003 103.494 L 307.06600000000003 20 L 390.562 20 L 390.562 103.494 z" stroke-linecap="round" />
</g>
		<g transform="matrix(1.95 0 0 1.95 279.55 -279.71)"  >
<rect style="stroke: none; stroke-width: 1; stroke-dasharray: none; stroke-linecap: butt; stroke-dashoffset: 0; stroke-linejoin: miter; stroke-miterlimit: 4; fill: rgb(0,0,0); fill-rule: nonzero; opacity: 1;" vector-effect="non-scaling-stroke"  x="-21" y="-21" rx="0" ry="0" width="42" height="42" />
</g>
		<g transform="matrix(1.95 0 0 1.95 279.55 279.71)"  >
<path style="stroke: none; stroke-width: 1; stroke-dasharray: none; stroke-linecap: butt; stroke-dashoffset: 0; stroke-linejoin: miter; stroke-miterlimit: 4; fill: rgb(0,0,0); fill-rule: nonzero; opacity: 1;" vector-effect="non-scaling-stroke"  transform=" translate(-348.81, -348.89)" d="M 400.562 287.146 L 297.066 287.146 C 291.544 287.146 287.066 291.623 287.066 297.146 L 287.066 400.64 C 287.066 406.161 291.544 410.64 297.066 410.64 L 400.56199999999995 410.64 C 406.08299999999997 410.64 410.56199999999995 406.161 410.56199999999995 400.64 L 410.56199999999995 297.146 C 410.562 291.623 406.085 287.146 400.562 287.146 z M 390.562 390.641 L 307.06600000000003 390.641 L 307.06600000000003 307.14700000000005 L 390.562 307.14700000000005 L 390.562 390.641 z" stroke-linecap="round" />
</g>
		<g transform="matrix(1.95 0 0 1.95 279.55 279.71)"  >
<rect style="stroke: none; stroke-width: 1; stroke-dasharray: none; stroke-linecap: butt; stroke-dashoffset: 0; stroke-linejoin: miter; stroke-miterlimit: 4; fill: rgb(0,0,0); fill-rule: nonzero; opacity: 1;" vector-effect="non-scaling-stroke"  x="-21" y="-21" rx="0" ry="0" width="42" height="42" />
</g>
		<g transform="matrix(1.95 0 0 1.95 -283.93 34.5)"  >
<path style="stroke: none; stroke-width: 1; stroke-dasharray: none; stroke-linecap: butt; stroke-dashoffset: 0; stroke-linejoin: miter; stroke-miterlimit: 4; fill: rgb(0,0,0); fill-rule: nonzero; opacity: 1;" vector-effect="non-scaling-stroke"  transform=" translate(-59.58, -223.03)" d="M 62.078 294.186 L 62.078 249.24699999999999 L 116.578 249.24699999999999 C 117.95700000000001 249.24699999999999 119.078 248.12499999999997 119.078 246.74699999999999 L 119.078 199.308 C 119.078 197.93 117.95700000000001 196.808 116.578 196.808 L 62.078 196.808 L 62.078 151.869 C 62.078 150.491 60.957 149.369 59.578 149.369 L 2.578000000000003 149.369 C 1.199000000000003 149.369 0.07800000000000296 150.491 0.07800000000000296 151.869 L 0.07800000000000296 199.308 C 0.07800000000000296 200.68599999999998 1.199000000000003 201.808 2.578000000000003 201.808 L 57.078 201.808 L 57.078 244.24699999999999 L 2.578000000000003 244.24699999999999 C 1.199000000000003 244.24699999999999 0.07800000000000296 245.368 0.07800000000000296 246.74699999999999 L 0.07800000000000296 294.186 C 0.07800000000000296 295.563 1.199000000000003 296.686 2.578000000000003 296.686 L 59.578 296.686 C 60.958 296.686 62.078 295.564 62.078 294.186 z" stroke-linecap="round" />
</g>
		<g transform="matrix(1.95 0 0 1.95 -56.31 5.73)"  >
<path style="stroke: none; stroke-width: 1; stroke-dasharray: none; stroke-linecap: butt; stroke-dashoffset: 0; stroke-linejoin: miter; stroke-miterlimit: 4; fill: rgb(0,0,0); fill-rule: nonzero; opacity: 1;" vector-effect="non-scaling-stroke"  transform=" translate(-176.42, -208.26)" d="M 148.8 178.143 C 147.42100000000002 178.143 146.3 179.26500000000001 146.3 180.643 L 146.3 235.875 C 146.3 237.253 147.42100000000002 238.375 148.8 238.375 L 204.032 238.375 C 205.411 238.375 206.532 237.253 206.532 235.875 L 206.532 180.643 C 206.532 179.26500000000001 205.411 178.143 204.032 178.143 L 148.8 178.143 z" stroke-linecap="round" />
</g>
		<g transform="matrix(1.95 0 0 1.95 31.52 -253.64)"  >
<path style="stroke: none; stroke-width: 1; stroke-dasharray: none; stroke-linecap: butt; stroke-dashoffset: 0; stroke-linejoin: miter; stroke-miterlimit: 4; fill: rgb(0,0,0); fill-rule: nonzero; opacity: 1;" vector-effect="non-scaling-stroke"  transform=" translate(-221.5, -75.13)" d="M 187.794 111.334 L 255.20600000000002 111.334 C 256.58500000000004 111.334 257.706 110.212 257.706 108.834 L 257.706 41.422 C 257.706 40.044 256.58500000000004 38.922 255.20600000000002 38.922 L 187.794 38.922 C 186.41500000000002 38.922 185.294 40.044 185.294 41.422 L 185.294 108.834 C 185.294 110.212 186.416 111.334 187.794 111.334 z" stroke-linecap="round" />
</g>
		<g transform="matrix(1.95 0 0 1.95 142.63 -67.89)"  >
<path style="stroke: none; stroke-width: 1; stroke-dasharray: none; stroke-linecap: butt; stroke-dashoffset: 0; stroke-linejoin: miter; stroke-miterlimit: 4; fill: rgb(0,0,0); fill-rule: nonzero; opacity: 1;" vector-effect="non-scaling-stroke"  transform=" translate(-278.53, -170.47)" d="M 250.713 145.155 L 250.713 195.793 C 250.713 197.171 251.834 198.293 253.213 198.293 L 303.852 198.293 C 305.231 198.293 306.352 197.171 306.352 195.793 L 306.352 145.155 C 306.352 143.77700000000002 305.231 142.655 303.852 142.655 L 253.21299999999997 142.655 C 251.834 142.655 250.713 143.777 250.713 145.155 z" stroke-linecap="round" />
</g>
		<g transform="matrix(1.95 0 0 1.95 -310 310.15)"  >
<path style="stroke: none; stroke-width: 1; stroke-dasharray: none; stroke-linecap: butt; stroke-dashoffset: 0; stroke-linejoin: miter; stroke-miterlimit: 4; fill: rgb(0,0,0); fill-rule: nonzero; opacity: 1;" vector-effect="non-scaling-stroke"  transform=" translate(-46.2, -364.52)" d="M 89.812 318.404 L 54.325 318.404 C 52.946000000000005 318.404 51.825 319.527 51.825 320.904 L 51.825 353.892 L 2.578 353.892 C 1.1989999999999998 353.892 0.07799999999999985 355.013 0.07799999999999985 356.392 L 0.07799999999999985 408.138 C 0.07799999999999985 409.517 1.1989999999999998 410.638 2.578 410.638 L 54.325 410.638 C 55.704 410.638 56.825 409.517 56.825 408.138 L 56.825 358.892 L 89.81200000000001 358.892 C 91.19100000000002 358.892 92.31200000000001 357.769 92.31200000000001 356.392 L 92.31200000000001 320.904 C 92.312 319.527 91.191 318.404 89.812 318.404 z" stroke-linecap="round" />
</g>
		<g transform="matrix(1.95 0 0 1.95 0.79 275.58)"  >
<path style="stroke: none; stroke-width: 1; stroke-dasharray: none; stroke-linecap: butt; stroke-dashoffset: 0; stroke-linejoin: miter; stroke-miterlimit: 4; fill: rgb(0,0,0); fill-rule: nonzero; opacity: 1;" vector-effect="non-scaling-stroke"  transform=" translate(-205.72, -346.78)" d="M 267.083 282.918 L 231.59600000000003 282.918 C 230.21700000000004 282.918 229.09600000000003 284.04 229.09600000000003 285.418 L 229.09600000000003 318.404 L 198.61000000000004 318.404 L 198.61000000000004 285.418 C 198.61000000000004 284.04 197.48900000000003 282.918 196.11000000000004 282.918 L 160.62300000000005 282.918 C 159.24400000000006 282.918 158.12300000000005 284.04 158.12300000000005 285.418 L 158.12300000000005 320.904 C 158.12300000000005 322.283 159.24400000000006 323.404 160.62300000000005 323.404 L 193.61000000000004 323.404 L 193.61000000000004 353.892 L 144.36300000000006 353.892 C 142.98400000000007 353.892 141.86300000000006 355.013 141.86300000000006 356.392 L 141.86300000000006 408.138 C 141.86300000000006 409.517 142.98400000000007 410.638 144.36300000000006 410.638 L 196.11000000000007 410.638 C 197.48900000000006 410.638 198.61000000000007 409.517 198.61000000000007 408.138 L 198.61000000000007 358.892 L 231.59600000000006 358.892 C 232.97500000000005 358.892 234.09600000000006 357.769 234.09600000000006 356.392 L 234.09600000000006 323.404 L 267.0830000000001 323.404 C 268.4620000000001 323.404 269.5830000000001 322.283 269.5830000000001 320.904 L 269.5830000000001 285.418 C 269.583 284.04 268.462 282.918 267.083 282.918 z" stroke-linecap="round" />
</g>
		<g transform="matrix(1.95 0 0 1.95 -103.45 -144.32)"  >
<path style="stroke: none; stroke-width: 1; stroke-dasharray: none; stroke-linecap: butt; stroke-dashoffset: 0; stroke-linejoin: miter; stroke-miterlimit: 4; fill: rgb(0,0,0); fill-rule: nonzero; opacity: 1;" vector-effect="non-scaling-stroke"  transform=" translate(-152.22, -131.24)" d="M 172.461 148.982 L 172.461 113.495 C 172.461 112.117 171.34 110.995 169.961 110.995 L 134.47400000000002 110.995 C 133.09600000000003 110.995 131.97400000000002 112.117 131.97400000000002 113.495 L 131.97400000000002 148.982 C 131.97400000000002 150.35999999999999 133.09600000000003 151.482 134.47400000000002 151.482 L 169.961 151.482 C 171.34 151.482 172.461 150.36 172.461 148.982 z" stroke-linecap="round" />
</g>
		<g transform="matrix(1.95 0 0 1.95 -75.54 -360.56)"  >
<path style="stroke: none; stroke-width: 1; stroke-dasharray: none; stroke-linecap: butt; stroke-dashoffset: 0; stroke-linejoin: miter; stroke-miterlimit: 4; fill: rgb(0,0,0); fill-rule: nonzero; opacity: 1;" vector-effect="non-scaling-stroke"  transform=" translate(-166.54, -20.24)" d="M 186.787 37.987 L 186.787 2.5 C 186.787 1.122 185.666 0 184.287 0 L 148.8 0 C 147.42100000000002 0 146.3 1.122 146.3 2.5 L 146.3 37.987 C 146.3 39.365 147.42100000000002 40.487 148.8 40.487 L 184.286 40.487 C 185.667 40.487 186.787 39.366 186.787 37.987 z" stroke-linecap="round" />
</g>
		<g transform="matrix(1.95 0 0 1.95 325.84 -11.72)"  >
<path style="stroke: none; stroke-width: 1; stroke-dasharray: none; stroke-linecap: butt; stroke-dashoffset: 0; stroke-linejoin: miter; stroke-miterlimit: 4; fill: rgb(0,0,0); fill-rule: nonzero; opacity: 1;" vector-effect="non-scaling-stroke"  transform=" translate(-372.57, -199.31)" d="M 408.062 184.063 C 409.44100000000003 184.063 410.562 182.94099999999997 410.562 181.563 L 410.562 146.076 C 410.562 144.698 409.44100000000003 143.576 408.062 143.576 L 372.575 143.576 C 371.19599999999997 143.576 370.075 144.698 370.075 146.076 L 370.075 179.063 L 337.08799999999997 179.063 C 335.70899999999995 179.063 334.58799999999997 180.185 334.58799999999997 181.563 L 334.58799999999997 217.04999999999998 C 334.58799999999997 218.42799999999997 335.70899999999995 219.54999999999998 337.08799999999997 219.54999999999998 L 370.075 219.54999999999998 L 370.075 252.53699999999998 C 370.075 253.914 371.19599999999997 255.03699999999998 372.575 255.03699999999998 L 408.062 255.03699999999998 C 409.44100000000003 255.03699999999998 410.562 253.914 410.562 252.53699999999998 L 410.562 217.05 C 410.562 215.67200000000003 409.44100000000003 214.55 408.062 214.55 L 375.075 214.55 L 375.075 184.06300000000002 L 408.062 184.06300000000002 L 408.062 184.063 z" stroke-linecap="round" />
</g>
</g>
</g>
</svg>